<svg xmlns="http://www.w3.org/2000/svg" xmlns:xlink="http://www.w3.org/1999/xlink" width="200" zoomAndPan="magnify" viewBox="0 0 150 149.999998" height="200" preserveAspectRatio="xMidYMid meet" version="1.0"><defs><g/><clipPath id="id1"><path d="M 28.339844 38.835938 L 90.359375 38.835938 L 90.359375 89.203125 L 28.339844 89.203125 Z M 28.339844 38.835938 " clip-rule="nonzero"/></clipPath><clipPath id="id2"><path d="M 60 14.203125 L 122 14.203125 L 122 65 L 60 65 Z M 60 14.203125 " clip-rule="nonzero"/></clipPath><clipPath id="id3"><path d="M 53 40 L 62 40 L 62 50 L 53 50 Z M 53 40 " clip-rule="nonzero"/></clipPath><clipPath id="id4"><path d="M 52.546875 43.070312 L 59.289062 40.476562 L 62.578125 49.035156 L 55.835938 51.628906 Z M 52.546875 43.070312 " clip-rule="nonzero"/></clipPath><clipPath id="id5"><path d="M 54 33 L 61 33 L 61 41 L 54 41 Z M 54 33 " clip-rule="nonzero"/></clipPath><clipPath id="id6"><path d="M 55.125 32.773438 L 60.585938 33.234375 L 60 40.160156 L 54.542969 39.703125 Z M 55.125 32.773438 " clip-rule="nonzero"/></clipPath></defs><g clip-path="url(#id1)"><path fill="#ff66c4" d="M 59.175781 38.945312 C 76.269531 38.851562 90.183594 48.234375 90.25 59.90625 C 90.3125 71.269531 73.945312 87.332031 64.464844 89.210938 C 67.175781 86.574219 69.296875 83.355469 70.597656 79.734375 C 67.132812 80.671875 63.363281 81.199219 59.417969 81.222656 C 42.320312 81.316406 28.40625 71.933594 28.339844 60.257812 C 28.273438 48.585938 42.082031 39.042969 59.175781 38.945312 " fill-opacity="1" fill-rule="evenodd"/></g><path fill="#ffffff" d="M 75.242188 55.792969 C 77.523438 55.742188 79.414062 57.546875 79.464844 59.828125 C 79.515625 62.105469 77.703125 63.992188 75.421875 64.042969 C 73.140625 64.09375 71.25 62.285156 71.199219 60.007812 C 71.148438 57.730469 72.960938 55.839844 75.242188 55.792969 Z M 59.207031 56.140625 C 61.488281 56.09375 63.378906 57.898438 63.429688 60.179688 C 63.480469 62.457031 61.667969 64.34375 59.386719 64.394531 C 57.105469 64.445312 55.214844 62.636719 55.164062 60.359375 C 55.113281 58.078125 56.921875 56.191406 59.207031 56.140625 Z M 43.171875 56.492188 C 45.453125 56.441406 47.34375 58.25 47.394531 60.527344 C 47.445312 62.804688 45.632812 64.695312 43.351562 64.742188 C 41.070312 64.792969 39.179688 62.988281 39.128906 60.707031 C 39.078125 58.429688 40.886719 56.539062 43.171875 56.492188 " fill-opacity="1" fill-rule="evenodd"/><g clip-path="url(#id2)"><path fill="#38b6ff" d="M 90.859375 14.296875 C 107.953125 14.199219 121.867188 23.585938 121.933594 35.257812 C 122 46.621094 105.628906 62.683594 96.148438 64.5625 C 98.859375 61.925781 100.980469 58.707031 102.28125 55.082031 C 98.816406 56.023438 95.046875 56.550781 91.101562 56.570312 C 74.003906 56.667969 60.09375 47.285156 60.027344 35.609375 C 59.960938 23.9375 73.765625 14.394531 90.859375 14.296875 " fill-opacity="1" fill-rule="evenodd"/></g><path fill="#ffffff" d="M 106.925781 31.140625 C 109.207031 31.09375 111.097656 32.898438 111.148438 35.179688 C 111.199219 37.457031 109.390625 39.34375 107.105469 39.394531 C 104.824219 39.445312 102.933594 37.636719 102.882812 35.359375 C 102.832031 33.078125 104.644531 31.191406 106.925781 31.140625 Z M 90.890625 31.492188 C 93.171875 31.441406 95.0625 33.25 95.113281 35.527344 C 95.164062 37.808594 93.355469 39.695312 91.070312 39.746094 C 88.789062 39.792969 86.898438 37.988281 86.847656 35.707031 C 86.796875 33.429688 88.609375 31.542969 90.890625 31.492188 Z M 74.855469 31.84375 C 77.136719 31.792969 79.027344 33.601562 79.078125 35.878906 C 79.128906 38.15625 77.316406 40.046875 75.035156 40.09375 C 72.753906 40.144531 70.863281 38.339844 70.8125 36.058594 C 70.761719 33.78125 72.574219 31.894531 74.855469 31.84375 " fill-opacity="1" fill-rule="evenodd"/><path fill="#5e17eb" d="M 60.433594 38.957031 C 75.292969 39.28125 87.5 46.765625 89.84375 56.558594 C 74.980469 56.238281 62.777344 48.75 60.433594 38.957031 " fill-opacity="1" fill-rule="evenodd"/><g clip-path="url(#id3)"><g clip-path="url(#id4)"><path fill="#38b6ff" d="M 60.648438 47.023438 C 60.460938 46.097656 60.691406 43.429688 59.742188 41.777344 C 59.320312 41.046875 58.234375 40.652344 57.589844 41.199219 C 57.332031 41.417969 57.191406 41.746094 57.121094 42.078125 C 56.921875 42.972656 57.179688 43.894531 57.472656 44.769531 C 57.496094 44.828125 57.523438 44.820312 57.472656 44.769531 C 56.945312 44.222656 56.269531 43.761719 55.550781 43.539062 C 54.75 43.289062 53.710938 43.570312 53.410156 44.355469 C 53.058594 45.253906 53.820312 46.191406 54.597656 46.769531 C 56.355469 48.078125 58.5 48.789062 60.65625 49.1875 C 60.917969 49.234375 61.386719 49.3125 61.71875 49.351562 C 61.78125 49.355469 61.8125 49.285156 61.769531 49.242188 C 61.617188 49.113281 60.914062 48.714844 60.648438 47.023438 Z M 60.648438 47.023438 " fill-opacity="1" fill-rule="nonzero"/></g></g><g clip-path="url(#id5)"><g clip-path="url(#id6)"><path fill="#ff66c4" d="M 59.347656 38.152344 C 59.527344 37.457031 60.566406 35.710938 60.464844 34.269531 C 60.417969 33.632812 59.808594 33.003906 59.1875 33.164062 C 58.941406 33.226562 58.734375 33.40625 58.578125 33.609375 C 58.144531 34.152344 58.015625 34.867188 57.925781 35.5625 C 57.921875 35.609375 57.945312 35.613281 57.925781 35.5625 C 57.746094 35.011719 57.4375 34.476562 57.023438 34.085938 C 56.558594 33.648438 55.753906 33.496094 55.292969 33.933594 C 54.753906 34.433594 54.964844 35.324219 55.304688 35.976562 C 56.070312 37.453125 57.296875 38.644531 58.636719 39.628906 C 58.800781 39.75 59.097656 39.957031 59.3125 40.09375 C 59.351562 40.117188 59.398438 40.078125 59.378906 40.035156 C 59.316406 39.898438 58.96875 39.394531 59.347656 38.152344 Z M 59.347656 38.152344 " fill-opacity="1" fill-rule="nonzero"/></g></g><g fill="#5e17eb" fill-opacity="1"><g transform="translate(34.30078, 119.999995)"><g><path d="M 10.378906 -5.191406 L 10.378906 -15.808594 C 10.378906 -18.71875 8.070312 -21 5.21875 -21 L 1.800781 -21 C 0.960938 -21 0 -20.28125 0 -19.261719 L 0 -1.769531 C 0 -0.871094 0.960938 0 1.800781 0 L 5.21875 0 C 8.070312 0 10.378906 -2.28125 10.378906 -5.191406 Z M 3.328125 -17.699219 L 5.21875 -17.699219 C 6.238281 -17.699219 7.078125 -16.859375 7.078125 -15.839844 L 7.078125 -5.191406 C 7.078125 -4.140625 6.238281 -3.269531 5.21875 -3.269531 L 3.328125 -3.269531 Z M 3.328125 -17.699219 "/></g></g></g><g fill="#5e17eb" fill-opacity="1"><g transform="translate(47.080763, 119.999995)"><g><path d="M 10.378906 -1.410156 L 10.378906 -14.308594 C 10.378906 -15.449219 10.261719 -16.558594 9.328125 -17.578125 L 9.359375 -17.578125 L 6.480469 -21.03125 C 6.148438 -21.359375 5.699219 -21.539062 5.25 -21.539062 C 4.769531 -21.539062 4.289062 -21.300781 3.960938 -20.941406 C 2.789062 -19.710938 2.21875 -18.75 1.109375 -17.550781 C 0.238281 -16.53125 0 -15.421875 0 -14.308594 L 0 -1.410156 C 0 -0.328125 0.871094 0.210938 1.648438 0.210938 C 2.519531 0.210938 3.328125 -0.359375 3.328125 -1.410156 L 3.328125 -6.601562 L 7.050781 -6.601562 L 7.050781 -1.410156 C 7.050781 -0.359375 7.921875 0.179688 8.730469 0.179688 C 9.570312 0.179688 10.378906 -0.359375 10.378906 -1.410156 Z M 7.050781 -14.308594 L 7.050781 -9.898438 L 3.328125 -9.898438 L 3.328125 -14.308594 C 3.328125 -14.671875 3.511719 -15.179688 3.691406 -15.480469 C 4.171875 -16.109375 4.679688 -16.769531 5.21875 -17.398438 L 6.71875 -15.390625 C 6.988281 -15.121094 7.050781 -14.699219 7.050781 -14.308594 Z M 7.050781 -14.308594 "/></g></g></g><g fill="#5e17eb" fill-opacity="1"><g transform="translate(59.860746, 119.999995)"><g><path d="M 0 -19.46875 L 0 -6.988281 C 0 -5.761719 0.359375 -4.558594 1.050781 -3.691406 C 1.980469 -2.578125 2.96875 -1.46875 3.898438 -0.359375 C 4.230469 0.0898438 4.769531 0.359375 5.308594 0.359375 C 5.820312 0.359375 6.359375 0.0898438 6.628906 -0.238281 L 6.628906 -0.210938 L 9.511719 -3.691406 C 10.171875 -4.53125 10.589844 -5.789062 10.589844 -6.988281 L 10.589844 -19.46875 C 10.589844 -20.519531 9.75 -21.03125 8.941406 -21.03125 C 8.128906 -21.03125 7.261719 -20.519531 7.261719 -19.46875 L 7.261719 -6.988281 C 7.261719 -6.601562 7.078125 -6.03125 6.839844 -5.699219 L 5.371094 -3.78125 L 3.691406 -5.761719 C 3.449219 -6 3.269531 -6.480469 3.269531 -6.988281 L 3.269531 -19.46875 C 3.269531 -20.429688 2.429688 -21.058594 1.621094 -21.058594 C 0.78125 -21.058594 0 -20.550781 0 -19.46875 Z M 0 -19.46875 "/></g></g></g><g fill="#5e17eb" fill-opacity="1"><g transform="translate(72.850728, 119.999995)"><g><path d="M 10.441406 -5.011719 C 10.441406 -6.089844 9.628906 -6.601562 8.761719 -6.601562 C 8.011719 -6.601562 7.140625 -6.089844 7.140625 -5.011719 C 7.140625 -3.960938 6.269531 -3.148438 5.25 -3.148438 C 4.140625 -3.148438 3.300781 -4.050781 3.300781 -5.011719 L 3.300781 -16.019531 C 3.300781 -17.101562 4.171875 -17.910156 5.25 -17.910156 C 6.238281 -17.910156 7.140625 -17.101562 7.140625 -16.019531 C 7.140625 -14.96875 8.011719 -14.429688 8.789062 -14.429688 C 9.660156 -14.429688 10.441406 -14.910156 10.441406 -16.019531 C 10.378906 -19.109375 7.949219 -21.238281 5.25 -21.238281 C 2.398438 -21.238281 0 -19.019531 0 -16.019531 L 0 -5.070312 C 0 -2.25 2.191406 0.210938 5.25 0.210938 C 8.128906 0.210938 10.378906 -2.070312 10.441406 -5.011719 Z M 10.441406 -5.011719 "/></g></g></g><g fill="#5e17eb" fill-opacity="1"><g transform="translate(85.090721, 119.999995)"><g><path d="M 10.558594 -1.53125 L 10.558594 -19.5 C 10.558594 -20.519531 9.75 -21.179688 8.851562 -21.179688 C 8.101562 -21.179688 7.230469 -20.640625 7.230469 -19.5 L 7.230469 -11.96875 L 3.328125 -11.96875 L 3.328125 -19.5 C 3.328125 -20.640625 2.519531 -21.179688 1.679688 -21.179688 C 0.871094 -21.179688 0 -20.519531 0 -19.5 L 0 -1.53125 C 0 -0.359375 0.808594 0.179688 1.648438 0.179688 C 2.488281 0.179688 3.328125 -0.390625 3.328125 -1.53125 L 3.328125 -8.699219 L 7.230469 -8.699219 L 7.230469 -1.53125 C 7.230469 -0.390625 8.101562 0.179688 8.910156 0.179688 C 9.71875 0.179688 10.558594 -0.390625 10.558594 -1.53125 Z M 10.558594 -1.53125 "/></g></g></g><g fill="#5e17eb" fill-opacity="1"><g transform="translate(98.050709, 119.999995)"><g><path d="M 10.378906 -1.410156 L 10.378906 -14.308594 C 10.378906 -15.449219 10.261719 -16.558594 9.328125 -17.578125 L 9.359375 -17.578125 L 6.480469 -21.03125 C 6.148438 -21.359375 5.699219 -21.539062 5.25 -21.539062 C 4.769531 -21.539062 4.289062 -21.300781 3.960938 -20.941406 C 2.789062 -19.710938 2.21875 -18.75 1.109375 -17.550781 C 0.238281 -16.53125 0 -15.421875 0 -14.308594 L 0 -1.410156 C 0 -0.328125 0.871094 0.210938 1.648438 0.210938 C 2.519531 0.210938 3.328125 -0.359375 3.328125 -1.410156 L 3.328125 -6.601562 L 7.050781 -6.601562 L 7.050781 -1.410156 C 7.050781 -0.359375 7.921875 0.179688 8.730469 0.179688 C 9.570312 0.179688 10.378906 -0.359375 10.378906 -1.410156 Z M 7.050781 -14.308594 L 7.050781 -9.898438 L 3.328125 -9.898438 L 3.328125 -14.308594 C 3.328125 -14.671875 3.511719 -15.179688 3.691406 -15.480469 C 4.171875 -16.109375 4.679688 -16.769531 5.21875 -17.398438 L 6.71875 -15.390625 C 6.988281 -15.121094 7.050781 -14.699219 7.050781 -14.308594 Z M 7.050781 -14.308594 "/></g></g></g><g fill="#5e17eb" fill-opacity="1"><g transform="translate(110.830691, 119.999995)"><g><path d="M 7.738281 -21 L 0.238281 -21 C -0.808594 -21 -1.320312 -20.191406 -1.320312 -19.320312 C -1.320312 -18.539062 -0.808594 -17.671875 0.238281 -17.671875 L 2.339844 -17.671875 L 2.339844 -1.53125 C 2.339844 -0.449219 3.179688 0.0898438 3.988281 0.0898438 C 4.859375 0.0898438 5.671875 -0.449219 5.671875 -1.53125 L 5.671875 -17.671875 L 7.738281 -17.671875 C 8.820312 -17.671875 9.328125 -18.539062 9.328125 -19.320312 C 9.328125 -20.191406 8.820312 -21 7.738281 -21 Z M 7.738281 -21 "/></g></g></g></svg>